<svg id="Layer_1" enable-background="new 0 0 512 512" height="512" viewBox="0 0 512 512" width="512" xmlns="http://www.w3.org/2000/svg"><g><path d="m496 480h-32v-272c0-114.691-93.309-208-208-208s-208 93.309-208 208v272h-32c-8.836 0-16 7.164-16 16s7.164 16 16 16h480c8.836 0 16-7.164 16-16s-7.164-16-16-16zm-416 0v-272c0-97.047 78.953-176 176-176s176 78.953 176 176v272z"/><path d="m312.566 263.193c6.248 6.248 16.379 6.25 22.627 0 6.249-6.248 6.249-16.379 0-22.627l-12.481-12.481c5.565-8.394 9.599-17.886 11.678-28.085h17.61c8.836 0 16-7.164 16-16s-7.164-16-16-16h-17.61c-2.079-10.199-6.113-19.691-11.678-28.085l12.481-12.481c6.249-6.249 6.249-16.379 0-22.627-6.248-6.249-16.378-6.249-22.627 0l-12.481 12.481c-8.394-5.565-17.886-9.599-28.085-11.678v-17.61c0-8.836-7.164-16-16-16s-16 7.164-16 16v17.61c-10.199 2.079-19.691 6.113-28.085 11.678l-12.481-12.481c-6.249-6.249-16.379-6.249-22.627 0-6.249 6.248-6.249 16.379 0 22.627l12.481 12.481c-5.565 8.394-9.599 17.886-11.678 28.085h-17.61c-8.836 0-16 7.164-16 16s7.164 16 16 16h17.61c2.079 10.199 6.113 19.691 11.678 28.085l-12.481 12.481c-6.249 6.249-6.249 16.379 0 22.627 6.247 6.248 16.378 6.249 22.627 0l12.481-12.481c8.394 5.565 17.886 9.599 28.085 11.678v17.61c0 8.836 7.164 16 16 16s16-7.164 16-16v-17.61c10.199-2.079 19.691-6.113 28.085-11.678zm-56.566-47.193c-7.924 0-14.486 5.767-15.759 13.329-13.807-4.814-24.755-15.763-29.57-29.57 7.562-1.273 13.329-7.835 13.329-15.759s-5.767-14.486-13.329-15.759c4.814-13.807 15.763-24.755 29.57-29.57 1.273 7.562 7.835 13.329 15.759 13.329s14.486-5.767 15.76-13.329c13.807 4.814 24.755 15.763 29.57 29.57-7.563 1.273-13.33 7.835-13.33 15.759s5.767 14.486 13.329 15.759c-4.814 13.807-15.762 24.755-29.57 29.57-1.273-7.562-7.835-13.329-15.759-13.329z"/><path d="m160 352c-26.467 0-48 21.533-48 48s21.533 48 48 48 48-21.533 48-48-21.533-48-48-48zm0 64c-8.822 0-16-7.178-16-16s7.178-16 16-16 16 7.178 16 16-7.178 16-16 16z"/><circle cx="352" cy="336" r="32"/></g></svg>