<svg id="Layer_1" enable-background="new 0 0 512.057 512.057" height="512" viewBox="0 0 512.057 512.057" width="512" xmlns="http://www.w3.org/2000/svg"><g><path d="m386.118 95.16c-36.812-18.445-81.827.129-94.738 39.565l-19.352-19.352v-99.373c0-8.836-7.163-16-16-16-8.836 0-16 7.164-16 16v99.373c-19.632 19.632-19.329 19.45-19.35 19.347-12.909-39.439-57.933-58.003-94.74-39.56-77.116 38.558-125.91 117.398-125.91 203.73v145.33c0 50.354 53.234 83.096 98.09 60.62l81.69-40.84c27.27-13.64 44.22-41.06 44.22-71.55v-215.822l32-32 32 32v215.822c0 30.49 16.95 57.91 44.22 71.55l81.69 40.84c44.833 22.464 98.09-10.245 98.09-60.62v-145.33c0-86.217-48.692-165.121-125.91-203.73zm-194.09 297.29c0 18.329-10.202 34.746-26.53 42.93l-81.69 40.84c-23.754 11.853-51.78-5.455-51.78-32v-145.33c0-74.64 41.47-141.74 108.22-175.11 23.754-11.853 51.78 5.455 51.78 32v7.592l-43.314 43.314c-6.248 6.249-6.248 16.379 0 22.628 6.249 6.248 16.379 6.248 22.628 0l20.686-20.686zm288 51.77c0 26.553-28.022 43.855-51.78 32l-81.69-40.84c-16.36-8.19-26.53-24.64-26.53-42.93v-183.823l20.687 20.687c6.247 6.248 16.379 6.249 22.627 0 6.249-6.248 6.249-16.379 0-22.627l-43.313-43.313v-7.593c0-26.553 28.015-43.859 51.78-32 66.75 33.37 108.22 100.47 108.22 175.11v145.329z"/><circle cx="416.028" cy="400" r="32"/><circle cx="376.028" cy="304" r="24"/><circle cx="432.028" cy="248" r="16"/><circle cx="96.028" cy="392" r="32"/><circle cx="80.028" cy="255" r="24"/><circle cx="152.028" cy="320" r="16"/></g></svg>