<svg id="Layer_1" enable-background="new 0 0 512 512" height="512" viewBox="0 0 512 512" width="512" xmlns="http://www.w3.org/2000/svg"><g><path d="m472 127.977c-14.788 0-28.553 4.483-40 12.16v-76.16c0-36.892-39.965-59.702-71.566-41.844-22.682-35.359-76.043-26.375-86.765 13.213-29.448-11.699-62.061 8.025-65.396 39.47-31.375-11.341-64.273 12.056-64.273 45.161v161.31c0 8.836 7.163 16 16 16s16-7.164 16-16v-161.31c0-4.277 1.663-8.296 4.684-11.316 10.052-10.051 27.316-2.843 27.316 11.316v104c0 8.836 7.163 16 16 16s16-7.164 16-16c0-15.023 0-128.423 0-144 0-4.277 1.663-8.296 4.684-11.316 10.052-10.051 27.316-2.843 27.316 11.316v144c0 8.836 7.163 16 16 16s16-7.164 16-16c0-19.663 0-154.448 0-176 0-4.277 1.663-8.296 4.684-11.316 10.052-10.051 27.316-2.843 27.316 11.316v176c0 8.836 7.163 16 16 16s16-7.164 16-16v-160c0-4.277 1.663-8.296 4.684-11.316 10.052-10.051 27.316-2.843 27.316 11.316v209.004c-54.417 6.803-101.687 47.819-111.782 108.365-1.626 9.754 5.895 18.634 15.802 18.634 7.679 0 14.458-5.546 15.763-13.371 8.443-50.676 50.261-82.631 96.218-82.631 8.837 0 16-7.164 16-16v-88c0-22.056 17.944-40 40-40 4.411 0 8 3.589 8 8v160c0 83.989-67.973 152-152 152-34.191 0-66.479-11.085-93.37-32.057-6.97-5.434-17.021-4.191-22.457 2.777-5.434 6.968-4.19 17.022 2.777 22.456 32.568 25.398 71.66 38.823 113.05 38.823 101.674 0 184-82.281 184-184v-160c-.001-22.056-17.945-40-40.001-40z"/><path d="m208 415.977c8.837 0 16-7.164 16-16s-7.163-16-16-16h-17.61c-2.079-10.199-6.113-19.691-11.678-28.085l12.481-12.481c6.249-6.249 6.249-16.379 0-22.627-6.248-6.249-16.379-6.249-22.627 0l-12.482 12.481c-8.394-5.565-17.886-9.6-28.085-11.678v-17.61c0-8.836-7.163-16-16-16s-16 7.164-16 16v17.61c-10.199 2.079-19.691 6.113-28.085 11.678l-12.482-12.481c-6.248-6.249-16.379-6.249-22.627 0-6.249 6.248-6.249 16.379 0 22.627l12.481 12.481c-5.565 8.394-9.6 17.886-11.678 28.085h-17.608c-8.837 0-16 7.164-16 16s7.163 16 16 16h17.61c2.079 10.199 6.113 19.691 11.678 28.085l-12.481 12.481c-6.249 6.249-6.249 16.379 0 22.627 6.247 6.248 16.379 6.249 22.627 0l12.482-12.481c8.394 5.565 17.886 9.6 28.085 11.678v17.61c0 8.836 7.163 16 16 16s16-7.164 16-16v-17.61c10.199-2.079 19.691-6.113 28.085-11.678l12.482 12.481c6.247 6.248 16.379 6.249 22.627 0 6.249-6.248 6.249-16.379 0-22.627l-12.481-12.481c5.565-8.394 9.6-17.886 11.678-28.085zm-50.671-.241c-4.814 13.807-15.763 24.755-29.57 29.57-1.274-7.562-7.835-13.329-15.76-13.329s-14.486 5.767-15.76 13.329c-13.807-4.814-24.755-15.763-29.57-29.57 7.564-1.273 13.331-7.835 13.331-15.759s-5.767-14.486-13.329-15.759c4.814-13.807 15.763-24.755 29.57-29.57 1.274 7.562 7.835 13.329 15.76 13.329s14.486-5.767 15.76-13.329c13.807 4.814 24.755 15.763 29.57 29.57-7.563 1.274-13.329 7.835-13.329 15.759s5.765 14.486 13.327 15.759z"/></g></svg>