<svg id="Layer_1" enable-background="new 0 0 512.004 512.004" height="512" viewBox="0 0 512.004 512.004" width="512" xmlns="http://www.w3.org/2000/svg"><g><path d="m160.002 128.002h17.61c2.079 10.199 6.113 19.691 11.678 28.085l-12.481 12.481c-6.249 6.249-6.249 16.379 0 22.627 6.247 6.248 16.378 6.249 22.627 0l12.481-12.481c8.394 5.565 17.886 9.599 28.085 11.678v17.61c0 8.836 7.164 16 16 16s16-7.164 16-16v-17.61c10.199-2.079 19.691-6.113 28.085-11.678l12.481 12.481c6.248 6.248 16.379 6.25 22.627 0 6.249-6.248 6.249-16.379 0-22.627l-12.481-12.481c5.565-8.394 9.599-17.886 11.678-28.085h17.61c8.836 0 16-7.164 16-16s-7.164-16-16-16h-17.61c-2.079-10.199-6.113-19.691-11.678-28.085l12.481-12.481c6.249-6.249 6.249-16.379 0-22.627-6.248-6.249-16.378-6.249-22.627 0l-12.481 12.481c-8.394-5.565-17.886-9.599-28.085-11.678v-17.61c0-8.836-7.164-16-16-16s-16 7.164-16 16v17.61c-10.199 2.079-19.691 6.113-28.085 11.678l-12.481-12.481c-6.249-6.249-16.379-6.249-22.627 0-6.249 6.248-6.249 16.379 0 22.627l12.481 12.481c-5.565 8.394-9.599 17.886-11.678 28.085h-17.61c-8.836 0-16 7.164-16 16s7.163 16 16 16zm50.671-31.76c4.814-13.807 15.763-24.755 29.57-29.57 1.274 7.562 7.835 13.329 15.759 13.329s14.486-5.767 15.759-13.329c13.807 4.814 24.755 15.763 29.57 29.57-7.562 1.274-13.329 7.835-13.329 15.759s5.767 14.486 13.329 15.759c-4.814 13.807-15.763 24.755-29.57 29.57-1.274-7.562-7.835-13.329-15.759-13.329s-14.486 5.767-15.759 13.329c-13.807-4.814-24.755-15.763-29.57-29.57 7.562-1.274 13.329-7.835 13.329-15.759s-5.767-14.485-13.329-15.759z"/><path d="m323.42 355.201c5.225-5.327 6.139-13.733 1.885-20.087-1.264-1.89.477.039-33.989-34.427-6.249-6.248-16.379-6.248-22.628 0-6.248 6.249-6.248 16.379 0 22.628l4.686 4.686h-73.372c-8.836 0-16 7.164-16 16s7.164 16 16 16h73.372l-4.686 4.686c-6.248 6.249-6.248 16.379 0 22.628 6.249 6.248 16.379 6.248 22.628 0 26.855-26.855 31.177-31.17 32.104-32.114z"/><path d="m199.246 420.888c-3.641-30.839-21.647-56.827-46.833-71.636 14.484-13.179 23.589-32.171 23.589-53.25v-16c0-39.701-32.299-72-72-72s-72 32.299-72 72v16c0 20.97 9.016 39.87 23.37 53.041-25.538 14.868-43.718 41.205-47.195 72.5l-8.077 72.692c-1.052 9.467 6.364 17.767 15.902 17.767h176c9.572 0 17.012-8.363 15.89-17.876zm-135.244-140.886c0-22.056 17.944-40 40-40s40 17.944 40 40v16c0 22.056-17.944 40-40 40s-40-17.944-40-40zm-30.124 200 6.103-54.926c3.615-32.538 31.029-57.074 63.767-57.074 32.513 0 59.906 24.349 63.718 56.638l6.536 55.362z"/><path d="m511.892 494.126-8.646-73.238c-3.641-30.839-21.647-56.827-46.833-71.636 14.484-13.179 23.589-32.171 23.589-53.25v-16c0-39.701-32.299-72-72-72s-72 32.299-72 72v16c0 20.97 9.016 39.87 23.37 53.041-25.538 14.868-43.718 41.205-47.195 72.5l-8.077 72.692c-1.052 9.467 6.364 17.767 15.902 17.767h176c9.571 0 17.012-8.363 15.89-17.876zm-143.89-214.124c0-22.056 17.944-40 40-40s40 17.944 40 40v16c0 22.056-17.944 40-40 40s-40-17.944-40-40zm-30.124 200 6.103-54.926c3.615-32.538 31.029-57.074 63.767-57.074 32.513 0 59.906 24.349 63.718 56.638l6.536 55.362z"/></g></svg>