<svg id="Layer_1" enable-background="new 0 0 511.997 511.997" height="512" viewBox="0 0 511.997 511.997" width="512" xmlns="http://www.w3.org/2000/svg"><g><path d="m311.214 234.013v-17.61c0-8.836-7.163-16-16-16s-16 7.164-16 16v17.61c-10.199 2.078-19.691 6.113-28.084 11.678l-12.482-12.482c-6.248-6.249-16.379-6.249-22.627 0-6.249 6.248-6.249 16.379 0 22.627l12.481 12.481c-5.565 8.394-9.6 17.886-11.678 28.085h-17.61c-8.837 0-16 7.164-16 16s7.163 16 16 16h17.61c2.079 10.199 6.113 19.691 11.678 28.085l-12.481 12.481c-10.109 10.108-2.813 27.314 11.313 27.314 4.095 0 8.189-1.562 11.313-4.687l12.482-12.481c8.394 5.565 17.886 9.599 28.085 11.678v17.61c0 8.836 7.163 16 16 16s16-7.164 16-16v-17.61c10.199-2.079 19.691-6.113 28.085-11.678l12.481 12.481c3.124 3.125 7.218 4.687 11.313 4.687 14.127 0 21.422-17.205 11.314-27.313l-12.482-12.482c5.565-8.394 9.599-17.886 11.678-28.084h17.61c8.837 0 16-7.164 16-16s-7.163-16-16-16h-17.61c-2.079-10.199-6.113-19.691-11.678-28.085l12.482-12.482c6.248-6.249 6.247-16.379-.001-22.627s-16.379-6.248-22.627 0l-12.482 12.482c-8.392-5.565-17.885-9.6-28.083-11.678zm29.329 94.149c-4.814 13.807-15.763 24.755-29.57 29.57-1.274-7.562-7.835-13.329-15.76-13.329s-14.486 5.767-15.76 13.329c-13.807-4.814-24.755-15.763-29.57-29.57 7.562-1.274 13.329-7.835 13.329-15.76 0-7.924-5.767-14.486-13.329-15.759 4.814-13.807 15.763-24.755 29.57-29.57 1.274 7.562 7.835 13.329 15.76 13.329s14.486-5.767 15.76-13.329c13.807 4.814 24.755 15.763 29.57 29.57-7.563 1.274-13.329 7.835-13.329 15.759 0 7.925 5.766 14.487 13.329 15.76z"/><circle cx="239.999" cy="143.998" r="32"/><path d="m360.269 96.727c-46.54-55.65-92.48-91.82-94.41-93.33-5.79-4.53-13.93-4.53-19.72 0-1.93 1.51-47.87 37.68-94.41 93.33-50.277 60.124-95.73 136.56-95.73 215.27 0 110.28 89.72 200 200 200s200-89.72 200-200c0-78.696-45.438-155.128-95.73-215.27zm-104.27 383.27c-92.64 0-168-75.36-168-168 0-101.056 90.915-209.436 168-275.23 77.081 65.79 168 174.16 168 275.23 0 92.641-75.36 168-168 168z"/><circle cx="139.999" cy="355.997" r="20"/></g></svg>