<svg id="Layer_1" enable-background="new 0 0 512.1 512.1" height="512" viewBox="0 0 512.1 512.1" width="512" xmlns="http://www.w3.org/2000/svg"><g><path d="m178.712 444.135c5.565-8.394 9.6-17.886 11.678-28.085h17.61c8.837 0 16-7.164 16-16s-7.163-16-16-16h-17.61c-2.079-10.199-6.113-19.691-11.678-28.085l12.481-12.481c6.249-6.249 6.249-16.379 0-22.627-6.248-6.249-16.379-6.249-22.627 0l-12.482 12.481c-8.394-5.565-17.886-9.599-28.085-11.678v-17.61c0-8.836-7.163-16-16-16s-16 7.164-16 16v17.61c-10.199 2.079-19.691 6.113-28.085 11.678l-12.482-12.481c-6.248-6.249-16.379-6.249-22.627 0-6.249 6.248-6.249 16.379 0 22.627l12.481 12.481c-5.565 8.394-9.6 17.886-11.678 28.085h-17.608c-8.837 0-16 7.164-16 16s7.163 16 16 16h17.61c2.079 10.199 6.113 19.691 11.678 28.085l-12.481 12.481c-6.249 6.249-6.249 16.379 0 22.627 6.247 6.248 16.379 6.249 22.627 0l12.482-12.481c8.394 5.565 17.886 9.599 28.085 11.678v17.61c0 8.836 7.163 16 16 16s16-7.164 16-16v-17.61c10.199-2.079 19.691-6.113 28.085-11.678l12.482 12.481c6.247 6.248 16.379 6.249 22.627 0 6.249-6.248 6.249-16.379 0-22.627zm-66.712-12.085c-7.925 0-14.486 5.767-15.76 13.329-13.807-4.814-24.755-15.763-29.57-29.57 7.563-1.273 13.33-7.835 13.33-15.759s-5.767-14.486-13.329-15.76c4.814-13.807 15.763-24.755 29.57-29.57 1.274 7.562 7.835 13.329 15.76 13.329s14.486-5.767 15.76-13.329c13.807 4.814 24.755 15.763 29.57 29.57-7.563 1.274-13.329 7.835-13.329 15.76s5.767 14.486 13.329 15.76c-4.814 13.807-15.763 24.755-29.57 29.57-1.275-7.563-7.836-13.33-15.761-13.33z"/><path d="m499.003 391.704-115.003-172.499v-187.155c8.837 0 16-7.164 16-16s-7.163-16-16-16c-29.748 0-113.966 0-144 0-8.837 0-16 7.164-16 16s7.163 16 16 16v187.156l-43.933 65.899c-4.902 7.352-2.915 17.286 4.438 22.188 7.351 4.901 17.286 2.915 22.188-4.438l15.297-22.945c1.64.206 146.029.251 148.022 0 93.118 139.673 89.263 132.379 92.036 141.579 8.841 29.191-13.14 58.561-43.458 58.561h-215.27c-8.837 0-16 7.164-16 16s7.163 16 16 16h215.27c61.306 0 98.816-68.623 64.413-120.346zm-239.774-143.654 10.083-15.125c1.753-2.628 2.688-5.716 2.688-8.875v-192h80v192c0 3.159.935 6.247 2.688 8.875l10.083 15.125z"/><circle cx="276" cy="332.05" r="20"/><circle cx="384" cy="376.05" r="32"/><circle cx="292" cy="428.05" r="28"/></g></svg>