<svg id="Layer_1" enable-background="new 0 0 512 512" height="512" viewBox="0 0 512 512" width="512" xmlns="http://www.w3.org/2000/svg"><g><path d="m322.927 300.49c5.565-8.394 9.599-17.886 11.678-28.085h17.61c8.836 0 16-7.164 16-16s-7.164-16-16-16h-17.61c-2.079-10.199-6.113-19.691-11.678-28.085l12.481-12.481c6.249-6.249 6.249-16.379 0-22.627-6.248-6.249-16.378-6.249-22.627 0l-12.481 12.481c-8.394-5.565-17.886-9.599-28.084-11.678v-17.61c0-8.836-7.164-16-16-16s-16 7.164-16 16v17.61c-10.199 2.079-19.691 6.113-28.085 11.678l-12.482-12.482c-6.249-6.249-16.379-6.249-22.627 0-6.249 6.248-6.249 16.379 0 22.627l12.482 12.482c-5.565 8.394-9.599 17.886-11.678 28.085h-17.61c-8.836 0-16 7.164-16 16s7.164 16 16 16h17.61c2.078 10.199 6.113 19.691 11.678 28.084l-12.482 12.482c-6.249 6.249-6.249 16.379 0 22.627 6.247 6.248 16.378 6.249 22.627 0l12.481-12.481c8.394 5.565 17.886 9.6 28.085 11.678v17.61c0 8.836 7.164 16 16 16s16-7.164 16-16v-17.61c10.199-2.079 19.691-6.113 28.085-11.678l12.481 12.481c6.248 6.248 16.379 6.25 22.627 0 6.249-6.248 6.249-16.379 0-22.627zm-66.712-12.085c-7.924 0-14.486 5.767-15.759 13.329-13.807-4.814-24.755-15.762-29.57-29.57 7.562-1.274 13.329-7.835 13.329-15.76s-5.767-14.486-13.329-15.76c4.814-13.807 15.763-24.755 29.57-29.57 1.274 7.562 7.835 13.329 15.759 13.329s14.486-5.767 15.76-13.329c13.807 4.814 24.755 15.762 29.57 29.57-7.562 1.274-13.329 7.835-13.329 15.76s5.767 14.486 13.329 15.76c-4.814 13.807-15.762 24.755-29.57 29.57-1.274-7.562-7.835-13.329-15.76-13.329z"/><path d="m429.374 406.746-43.858-43.858c51.341-62.1 51.323-151.699 0-213.777l43.858-43.858c36.988 20.078 82.626-6.764 82.626-49.253 0-30.878-25.122-56-56-56-42.435 0-69.361 45.581-49.254 82.626l-43.858 43.858c-62.1-51.341-151.699-51.323-213.777 0l-43.857-43.858c20.077-36.988-6.765-82.626-49.254-82.626-30.878 0-56 25.122-56 56 0 42.436 45.581 69.361 82.627 49.254l43.857 43.858c-51.344 62.103-51.32 151.703 0 213.777l-43.857 43.858c-36.989-20.077-82.627 6.764-82.627 49.253 0 30.878 25.122 56 56 56 42.435 0 69.361-45.581 49.254-82.626l43.857-43.858c62.103 51.344 151.703 51.32 213.777 0l43.858 43.858c-20.077 36.988 6.765 82.626 49.254 82.626 30.878 0 56-25.122 56-56 0-42.435-45.581-69.361-82.626-49.254zm26.626-374.746c13.234 0 24 10.766 24 24s-10.766 24-24 24-24-10.766-24-24 10.766-24 24-24zm-424 24c0-13.234 10.766-24 24-24s24 10.766 24 24-10.766 24-24 24-24-10.766-24-24zm24 424c-13.234 0-24-10.766-24-24s10.766-24 24-24 24 10.766 24 24-10.766 24-24 24zm64-224c0-74.991 61.009-136 136-136s136 61.009 136 136-61.009 136-136 136-136-61.009-136-136zm336 224c-13.234 0-24-10.766-24-24s10.766-24 24-24 24 10.766 24 24-10.766 24-24 24z"/></g></svg>