<svg id="Layer_1" enable-background="new 0 0 512.037 512.037" height="512" viewBox="0 0 512.037 512.037" width="512" xmlns="http://www.w3.org/2000/svg"><g><path d="m208.019 416.029c8.836 0 16-7.164 16-16s-7.164-16-16-16c-18.626 0-17.573.096-17.611-.004-2.079-10.197-6.113-19.688-11.677-28.08l12.481-12.481c6.249-6.249 6.249-16.379 0-22.627-6.248-6.249-16.378-6.249-22.627 0l-12.481 12.481c-8.394-5.565-17.886-9.599-28.085-11.678v-17.61c0-8.836-7.164-16-16-16s-16 7.164-16 16v17.61c-10.199 2.079-19.691 6.113-28.085 11.678l-12.481-12.481c-6.249-6.249-16.379-6.249-22.627 0-6.249 6.248-6.249 16.379 0 22.627l12.481 12.481c-5.565 8.394-9.599 17.886-11.678 28.085h-17.61c-8.836 0-16 7.164-16 16s7.164 16 16 16h17.61c2.079 10.199 6.113 19.691 11.678 28.085l-12.481 12.481c-10.109 10.109-2.812 27.314 11.313 27.314 4.095 0 8.189-1.562 11.314-4.687l12.481-12.481c8.394 5.565 17.886 9.599 28.085 11.678v17.61c0 8.836 7.164 16 16 16s16-7.164 16-16v-17.61c10.199-2.079 19.691-6.113 28.085-11.678l12.481 12.481c3.125 3.125 7.219 4.687 11.314 4.687 14.126 0 21.421-17.206 11.313-27.314l-12.481-12.481c5.565-8.394 9.599-17.886 11.678-28.085h17.61zm-80.24 29.33c-1.274-7.562-7.835-13.329-15.759-13.329s-14.486 5.767-15.759 13.329c-13.807-4.814-24.755-15.762-29.57-29.57 7.562-1.274 13.329-7.835 13.329-15.76s-5.767-14.486-13.329-15.76c4.814-13.807 15.763-24.755 29.57-29.57 1.274 7.562 7.835 13.329 15.759 13.329s14.486-5.767 15.759-13.329c13.807 4.814 24.755 15.762 29.57 29.57-7.562 1.274-13.329 7.835-13.329 15.76s5.767 14.486 13.329 15.76c-4.815 13.807-15.763 24.755-29.57 29.57z"/><path d="m511.404 20.425c3.49-12.215-8.021-23.464-20.157-19.667-1.337.417-33.135 10.397-66.477 24.542-65.003 27.578-77.045 45.936-80.273 58.849-.948 3.79-1.89 8.594-2.817 14.123-6.608-26.527-12.801-49.262-14.231-54.474-3.658-13.34-21.48-16.063-28.929-4.358l-31.304 49.192c-7.435-.801-14.961-.801-22.396 0l-31.304-49.192c-7.432-11.679-25.262-9.011-28.929 4.358-1.43 5.212-7.623 27.948-14.231 54.474-.927-5.529-1.869-10.333-2.817-14.123-3.229-12.913-15.27-31.271-80.273-58.849-33.339-14.145-65.137-24.125-66.474-24.542-12.115-3.788-23.654 7.426-20.157 19.667 15.026 52.592 15.091 97.887.206 142.545-2.12 6.359-.051 13.366 5.184 17.554 20.387 16.308 34.533 50.036 39.835 94.97 1.036 8.784 8.998 15.051 17.764 14.015 8.776-1.035 15.051-8.989 14.015-17.764-4.075-34.544-14.955-80.031-43.309-108.712 11.358-39.249 12.726-78.927 4.106-122.452 10.353 3.739 22.675 8.417 35.145 13.675 57.833 24.382 62.893 37.597 62.917 37.654 7.572 30.289 15.484 140.153 15.563 141.26.331 4.627 2.653 8.883 6.365 11.664.171.128 2.606 1.949 6.618 4.829-3.603 5.86-7.346 12.809-10.665 20.709-3.423 8.146.407 17.526 8.553 20.949 8.191 3.441 17.544-.45 20.949-8.553 1.687-4.016 3.513-7.714 5.358-11.079 38.364 32.214 94.604 32.693 133.537.021 6.627 12.115 13.243 29.033 13.243 48.321 0 23.329-4.871 43.102-14.21 63.531-12.423 26.945-34.009 56.351-65.789 89.586-5.05-5.282-9.864-10.482-14.38-15.546-5.881-6.596-15.996-7.173-22.59-1.292-6.595 5.881-7.174 15.995-1.292 22.59 13.754 15.423 27.121 28.619 26.947 28.445 6.585 6.583 17.095 5.901 22.63-.003 30.909-30.909 63.638-68.552 82.423-108.027 38.54-41.784 73.477-66.516 101.122-71.541 7.608-1.383 13.139-8.009 13.139-15.742 0-47.333 11.032-106.736 41.995-131.506 5.234-4.188 7.304-11.194 5.184-17.553-14.886-44.661-14.821-89.956.206-142.548zm-255.385 243.604c-39.701 0-72-32.299-72-72 0-14.06 11.339-62.702 22.107-104.601l17.35 27.264c3.61 5.673 10.382 8.485 16.946 7.034 10.207-2.252 20.986-2.252 31.193 0 6.565 1.451 13.337-1.361 16.946-7.034l17.35-27.265c10.767 41.895 22.107 90.538 22.107 104.602.001 39.701-32.298 72-71.999 72zm176.242 35.479c-20.249 6.388-42.017 19.317-65.111 38.648 2.888-29.905-1.305-57.941-20.144-88.502 4.006-2.875 6.437-4.693 6.608-4.821 3.712-2.781 6.035-7.037 6.365-11.664.079-1.106 7.991-110.971 15.542-141.187.044-.13 5.092-13.314 62.735-37.643 12.523-5.285 24.928-9.996 35.347-13.758-8.618 43.521-7.253 83.2 4.105 122.446-32.659 32.986-43.701 90.098-45.447 136.481z"/><path d="m216.019 176.029c-8.836 0-16 7.164-16 16v8c0 8.836 7.164 16 16 16s16-7.164 16-16v-8c0-8.836-7.163-16-16-16z"/><path d="m296.019 176.029c-8.836 0-16 7.164-16 16v8c0 8.836 7.164 16 16 16s16-7.164 16-16v-8c0-8.836-7.163-16-16-16z"/></g></svg>