<svg id="Layer_1" enable-background="new 0 0 512 512" height="512" viewBox="0 0 512 512" width="512" xmlns="http://www.w3.org/2000/svg"><g><path d="m457.47 144.964-28.217-10.266c-3.142-1.139-5.253-4.157-5.253-7.508v-31.19c8.836 0 16-7.164 16-16v-64c0-8.836-7.164-16-16-16h-144c-8.836 0-16 7.164-16 16v64c0 8.836 7.164 16 16 16v31.19c0 3.352-2.111 6.369-5.27 7.515l-28.199 10.259c-32.617 11.864-54.531 43.152-54.531 77.856v69.86c0 8.836 7.164 16 16 16s16-7.164 16-16v-69.86c0-21.299 13.45-40.502 33.47-47.784l28.183-10.253c15.759-5.714 26.347-20.821 26.347-37.593v-31.19h80v31.19c0 16.772 10.588 31.879 26.33 37.586l28.201 10.26c18.792 6.836 33.469 24.786 33.469 48.964h-208c-8.836 0-16 7.164-16 16v176c0 8.836 7.164 16 16 16h208v48h-260.68c-8.836 0-16 7.164-16 16s7.164 16 16 16h276.68c8.836 0 16-7.164 16-16 0-6.791 0-260.597 0-273.18 0-34.704-21.914-65.992-54.53-77.856zm-161.47-80.964v-32h112v32zm-8 336v-144h192v144z"/><path d="m423.5 311.5h-23.5v-23.5c0-8.836-7.164-16-16-16s-16 7.164-16 16v23.5h-23.5c-8.836 0-16 7.164-16 16s7.164 16 16 16h23.5v23.5c0 8.836 7.164 16 16 16s16-7.164 16-16v-23.5h23.5c8.836 0 16-7.164 16-16s-7.164-16-16-16z"/><path d="m178.712 444.085c5.565-8.394 9.599-17.886 11.678-28.085h17.61c8.836 0 16-7.164 16-16s-7.164-16-16-16c-18.626 0-17.573.096-17.611-.004-2.079-10.197-6.113-19.688-11.677-28.08l12.481-12.481c6.249-6.249 6.249-16.379 0-22.627-6.248-6.249-16.378-6.249-22.627 0l-12.481 12.481c-8.394-5.565-17.886-9.599-28.085-11.678v-17.611c0-8.836-7.164-16-16-16s-16 7.164-16 16v17.61c-10.199 2.079-19.691 6.113-28.085 11.678l-12.481-12.481c-6.249-6.249-16.379-6.249-22.627 0-6.249 6.248-6.249 16.379 0 22.627l12.481 12.481c-5.565 8.394-9.599 17.886-11.678 28.085h-17.61c-8.836 0-16 7.164-16 16s7.164 16 16 16h17.61c2.079 10.199 6.113 19.691 11.678 28.085l-12.481 12.481c-10.109 10.109-2.812 27.314 11.313 27.314 4.095 0 8.189-1.562 11.314-4.687l12.481-12.481c8.394 5.565 17.886 9.599 28.085 11.678v17.61c0 8.836 7.164 16 16 16s16-7.164 16-16v-17.61c10.199-2.079 19.691-6.113 28.085-11.678l12.481 12.481c3.125 3.125 7.219 4.687 11.314 4.687 14.126 0 21.421-17.206 11.313-27.314zm-66.712-12.085c-7.924 0-14.486 5.767-15.759 13.329-13.807-4.814-24.755-15.762-29.57-29.57 7.562-1.273 13.329-7.835 13.329-15.759s-5.767-14.486-13.329-15.76c4.814-13.807 15.763-24.755 29.57-29.57 1.273 7.563 7.835 13.33 15.759 13.33s14.486-5.767 15.759-13.329c13.807 4.814 24.755 15.762 29.57 29.57-7.562 1.273-13.329 7.835-13.329 15.759s5.767 14.486 13.329 15.76c-4.814 13.807-15.763 24.755-29.57 29.57-1.273-7.563-7.835-13.33-15.759-13.33z"/></g></svg>