<svg id="Layer_1" enable-background="new 0 0 512.029 512.029" height="512" viewBox="0 0 512.029 512.029" width="512" xmlns="http://www.w3.org/2000/svg"><g><path d="m510.13 412.193c-2.682-9.901 13.381 19.063-205.386-353.637-9.608-16.371-27.369-26.541-46.349-26.541h-4.78c-18.979 0-36.739 10.17-46.348 26.541l-199.875 340.518c-20.77 35.438 4.619 80.941 46.354 80.941h404.52c35.243-.001 61.141-33.578 51.864-67.822zm-51.864 35.821h-404.52c-16.889 0-27.155-18.414-18.752-32.75l199.87-340.51c3.889-6.625 11.074-10.74 18.751-10.74h4.78c7.678 0 14.863 4.115 18.751 10.739 213.995 364.571 200.974 341.66 202.096 345.807 3.77 13.892-6.743 27.454-20.976 27.454z"/><path d="m352.006 296.014h-17.61c-2.079-10.199-6.113-19.691-11.678-28.085l12.481-12.481c6.249-6.249 6.249-16.379 0-22.627-6.248-6.249-16.379-6.249-22.627 0l-12.482 12.481c-8.394-5.565-17.886-9.6-28.085-11.678v-17.61c0-8.836-7.163-16-16-16-8.836 0-16 7.164-16 16v17.61c-10.199 2.079-19.691 6.113-28.085 11.678l-12.481-12.481c-6.249-6.249-16.379-6.249-22.627 0-6.249 6.248-6.249 16.379 0 22.627l12.481 12.481c-5.565 8.394-9.599 17.886-11.678 28.085h-17.61c-8.836 0-16 7.164-16 16s7.164 16 16 16h17.61c2.079 10.199 6.113 19.691 11.678 28.085l-12.481 12.481c-6.249 6.249-6.249 16.379 0 22.627 6.247 6.248 16.378 6.249 22.627 0l12.481-12.481c8.394 5.565 17.886 9.599 28.085 11.678v17.61c0 8.836 7.164 16 16 16 8.837 0 16-7.164 16-16v-17.61c10.199-2.079 19.691-6.113 28.085-11.678l12.482 12.481c6.247 6.248 16.379 6.249 22.627 0 6.249-6.248 6.249-16.379 0-22.627l-12.481-12.481c5.565-8.394 9.599-17.886 11.678-28.085h17.61c8.837 0 16-7.164 16-16s-7.163-16-16-16zm-50.67 31.76c-4.814 13.807-15.763 24.755-29.57 29.57-1.274-7.562-7.835-13.329-15.76-13.329-7.924 0-14.486 5.767-15.76 13.329-13.807-4.814-24.755-15.762-29.57-29.57 7.562-1.274 13.329-7.835 13.329-15.76s-5.767-14.486-13.329-15.76c4.814-13.807 15.762-24.755 29.57-29.57 1.274 7.562 7.835 13.329 15.76 13.329s14.486-5.767 15.76-13.329c13.807 4.814 24.755 15.762 29.57 29.57-7.563 1.274-13.329 7.835-13.329 15.76s5.766 14.486 13.329 15.76z"/></g></svg>