<svg id="Layer_1" enable-background="new 0 0 512 512" height="512" viewBox="0 0 512 512" width="512" xmlns="http://www.w3.org/2000/svg"><g><path d="m336 151.39v-55.39c0-8.836-7.163-16-16-16h-48v-48h82.667l27.733 20.8c7.124 5.345 17.142 3.811 22.399-3.2 5.302-7.069 3.869-17.098-3.2-22.4l-32-24c-2.769-2.077-6.137-3.2-9.599-3.2h-160c-8.837 0-16 7.164-16 16s7.163 16 16 16h40v48h-48c-8.837 0-16 7.164-16 16v55.39c-42.06 16.137-72 56.94-72 104.61v240c0 8.836 7.163 16 16 16h272c8.837 0 16-7.164 16-16 0-6.543 0-232.971 0-240 0-47.67-29.94-88.473-72-104.61zm-200 120.61h240v144h-240zm72-128v-32h96v32c-10.637 0-83.164 0-96 0zm8 32h80c38.634 0 70.957 27.529 78.39 64h-236.78c7.432-36.471 39.755-64 78.39-64zm-80 304v-32h240v32z"/><path d="m295.5 327.5h-23.5v-23.5c0-8.836-7.163-16-16-16s-16 7.164-16 16v23.5h-23.5c-8.837 0-16 7.164-16 16s7.163 16 16 16h23.5v23.5c0 8.836 7.163 16 16 16s16-7.164 16-16v-23.5h23.5c8.837 0 16-7.164 16-16s-7.163-16-16-16z"/></g></svg>