<svg id="Layer_1" enable-background="new 0 0 511.953 511.953" height="512" viewBox="0 0 511.953 511.953" width="512" xmlns="http://www.w3.org/2000/svg"><g><path d="m439.862 127.953c-14.788 0-28.553 4.483-40 12.16v-76.16c0-36.893-39.963-59.699-71.567-41.844-22.68-35.36-76.047-26.372-86.764 13.213-29.236-11.612-62.038 7.809-65.396 39.471-31.309-11.318-64.272 11.992-64.272 45.161v152.016c-19.68 17.504-79.771 76.215-79.771 140.438 0 54.479 43.021 98.8 95.899 98.8 26.397 0 50.336-11.045 67.695-28.885 29.783 19.432 64.107 29.632 100.177 29.632 101.671 0 184-82.28 184-184v-160c-.001-22.058-17.945-40.002-40.001-40.002zm-311.872 351.253c-35.234 0-63.899-29.966-63.899-66.8 0-46.219 43.658-92.704 63.899-111.769 41.964 39.527 84.212 100.079 53.204 148.714-1.203 1.238-2.169 2.584-2.978 4.278-11.71 15.557-29.864 25.577-50.226 25.577zm319.872-151.253c0 83.989-67.973 152-152 152-29.44 0-57.465-8.226-81.854-23.899 30.991-64.56-16.622-136.83-70.146-184.314v-151.787c0-8.85 7.149-16 16-16 8.822 0 16 7.178 16 16v104c0 8.836 7.163 16 16 16s16-7.164 16-16c0-15.023 0-128.423 0-144 0-8.85 7.149-16 16-16 8.822 0 16 7.178 16 16v144c0 8.836 7.163 16 16 16s16-7.164 16-16c0-19.663 0-154.448 0-176 0-8.85 7.149-16 16-16 8.822 0 16 7.178 16 16v176c0 8.836 7.163 16 16 16s16-7.164 16-16v-160c0-8.85 7.149-16 16-16 8.822 0 16 7.178 16 16v209.004c-55.026 6.878-101.789 48.405-111.782 108.366-1.453 8.716 4.436 16.96 13.152 18.413 8.715 1.454 16.959-4.436 18.412-13.152 8.452-50.713 50.298-82.63 96.218-82.63 8.837 0 16-7.164 16-16v-88c0-22.056 17.944-40 40-40 4.411 0 8 3.589 8 8z"/></g></svg>