<svg id="Layer_1" enable-background="new 0 0 512 512" height="512" viewBox="0 0 512 512" width="512" xmlns="http://www.w3.org/2000/svg"><g><path d="m256 0c-110.28 0-200 89.72-200 200 0 78.711 45.478 155.186 95.727 215.265 46.548 55.655 92.48 91.823 94.413 93.335 5.792 4.533 13.93 4.533 19.722 0 1.933-1.512 47.865-37.68 94.413-93.335 50.259-60.093 95.725-136.565 95.725-215.265 0-110.28-89.72-200-200-200zm0 475.228c-77.111-65.809-168-174.171-168-275.228 0-92.636 75.364-168 168-168s168 75.364 168 168c0 101.065-90.923 209.449-168 275.228z"/><path d="m352 184h-17.61c-2.079-10.199-6.113-19.691-11.678-28.085l12.481-12.481c6.249-6.249 6.249-16.379 0-22.627-6.248-6.249-16.378-6.249-22.627 0l-12.481 12.481c-8.394-5.565-17.886-9.599-28.085-11.678v-17.61c0-8.836-7.164-16-16-16s-16 7.164-16 16v17.61c-10.199 2.079-19.691 6.113-28.085 11.678l-12.481-12.481c-6.249-6.249-16.379-6.249-22.627 0-6.249 6.248-6.249 16.379 0 22.627l12.481 12.481c-5.565 8.394-9.599 17.886-11.678 28.085h-17.61c-8.836 0-16 7.164-16 16s7.164 16 16 16h17.61c2.079 10.199 6.113 19.691 11.678 28.085l-12.481 12.481c-6.249 6.249-6.249 16.379 0 22.627 6.247 6.248 16.378 6.249 22.627 0l12.481-12.481c8.394 5.565 17.886 9.599 28.085 11.678v17.61c0 8.836 7.164 16 16 16s16-7.164 16-16v-17.61c10.199-2.079 19.691-6.113 28.085-11.678l12.481 12.481c6.248 6.248 16.379 6.25 22.627 0 6.249-6.248 6.249-16.379 0-22.627l-12.481-12.481c5.565-8.394 9.599-17.886 11.678-28.085h17.61c8.836 0 16-7.164 16-16s-7.164-16-16-16zm-50.671 31.76c-4.814 13.807-15.762 24.755-29.57 29.57-1.273-7.563-7.835-13.33-15.759-13.33s-14.486 5.767-15.759 13.329c-13.807-4.814-24.755-15.762-29.57-29.57 7.562-1.273 13.329-7.835 13.329-15.759s-5.767-14.486-13.329-15.76c4.814-13.807 15.763-24.755 29.57-29.57 1.273 7.563 7.835 13.33 15.759 13.33s14.486-5.767 15.76-13.329c13.807 4.814 24.755 15.762 29.57 29.57-7.563 1.273-13.33 7.835-13.33 15.759s5.767 14.486 13.329 15.76z"/></g></svg>