<svg id="Layer_1" enable-background="new 0 0 512.005 512.005" height="512" viewBox="0 0 512.005 512.005" width="512" xmlns="http://www.w3.org/2000/svg"><g><path d="m160.002 128.002h17.61c2.079 10.199 6.113 19.691 11.678 28.085l-12.481 12.481c-6.249 6.249-6.249 16.379 0 22.627 6.247 6.248 16.378 6.249 22.627 0l12.481-12.481c8.394 5.565 17.886 9.599 28.085 11.678v17.61c0 8.836 7.164 16 16 16 8.837 0 16-7.164 16-16v-17.61c10.199-2.079 19.691-6.113 28.085-11.678l12.482 12.481c6.247 6.248 16.379 6.249 22.627 0 6.249-6.248 6.249-16.379 0-22.627l-12.481-12.481c5.565-8.394 9.599-17.886 11.678-28.085h17.61c8.837 0 16-7.164 16-16s-7.163-16-16-16h-17.61c-2.079-10.199-6.113-19.691-11.678-28.085l12.481-12.481c6.249-6.249 6.249-16.379 0-22.627-6.248-6.249-16.379-6.249-22.627 0l-12.482 12.481c-8.394-5.565-17.886-9.6-28.085-11.678v-17.61c0-8.836-7.163-16-16-16-8.836 0-16 7.164-16 16v17.61c-10.199 2.079-19.691 6.113-28.085 11.678l-12.481-12.481c-6.249-6.249-16.379-6.249-22.627 0-6.249 6.248-6.249 16.379 0 22.627l12.481 12.481c-5.565 8.394-9.599 17.886-11.678 28.085h-17.61c-8.836 0-16 7.164-16 16s7.164 16 16 16zm50.671-31.759c4.814-13.807 15.762-24.755 29.57-29.57 1.274 7.562 7.835 13.329 15.76 13.329s14.486-5.767 15.76-13.329c13.807 4.814 24.755 15.762 29.57 29.57-7.563 1.274-13.329 7.835-13.329 15.76s5.767 14.486 13.329 15.76c-4.814 13.807-15.763 24.755-29.57 29.57-1.274-7.562-7.835-13.329-15.76-13.329-7.924 0-14.486 5.767-15.76 13.329-13.807-4.814-24.755-15.762-29.57-29.57 7.562-1.274 13.329-7.835 13.329-15.76s-5.767-14.487-13.329-15.76z"/><path d="m511.871 493.958-7.86-61.032c-3.337-25.913-19.335-47.851-41.797-60.704 11.006-11.497 17.789-27.067 17.789-44.2v-16.039c0-35.279-28.701-63.98-64.02-63.98-35.279 0-63.98 28.702-63.98 63.98v16.039c0 17.039 6.708 32.53 17.605 44.008-14.526 8.229-26.346 20.254-33.843 34.703-7.455-14.331-19.174-26.284-33.551-34.511 11.006-11.497 17.789-27.067 17.789-44.2v-16.039c0-35.279-28.701-63.98-64.02-63.98-35.279 0-63.98 28.702-63.98 63.98v16.039c0 17.038 6.708 32.53 17.605 44.008-14.526 8.229-26.346 20.254-33.843 34.703-7.455-14.331-19.174-26.284-33.551-34.511 11.005-11.497 17.789-27.067 17.789-44.2v-16.039c0-35.279-28.702-63.98-64.02-63.98-35.279 0-63.98 28.702-63.98 63.98v16.039c0 17.038 6.708 32.53 17.605 44.008-22.794 12.912-38.957 35.156-42.147 61.47l-7.343 60.577c-1.154 9.524 6.287 17.925 15.884 17.925h480c9.613 0 17.104-8.445 15.869-18.044zm-127.869-181.975c0-17.634 14.347-31.98 32.02-31.98 17.634 0 31.98 14.346 31.98 31.98v16.039c0 17.634-14.347 31.98-31.98 31.98-17.802 0-32.02-14.458-32.02-31.98zm-160 0c0-17.634 14.346-31.98 32.02-31.98 17.634 0 31.98 14.346 31.98 31.98v16.039c0 17.634-14.347 31.98-31.98 31.98-17.839 0-32.02-14.495-32.02-31.98zm-160 0c0-17.634 14.346-31.98 32.02-31.98 17.634 0 31.98 14.346 31.98 31.98v16.039c0 17.634-14.346 31.98-31.98 31.98-17.839 0-32.02-14.495-32.02-31.98zm-29.943 168.019 5.17-42.651c3.134-25.853 27.442-45.349 56.543-45.349 28.906 0 53.196 19.351 56.501 45.012l5.537 42.988zm160 0 5.17-42.651c3.134-25.853 27.442-45.349 56.543-45.349 28.906 0 53.196 19.351 56.501 45.012l5.537 42.988zm160 0 5.17-42.651c3.134-25.853 27.441-45.349 56.543-45.349 28.906 0 53.196 19.351 56.501 45.012l5.537 42.988z"/></g></svg>