<svg id="Layer_1" enable-background="new 0 0 512 512" height="512" viewBox="0 0 512 512" width="512" xmlns="http://www.w3.org/2000/svg"><g><path d="m496 480h-32v-272c0-114.691-93.309-208-208-208s-208 93.309-208 208v272h-32c-8.837 0-16 7.164-16 16s7.163 16 16 16h480c8.837 0 16-7.164 16-16s-7.163-16-16-16zm-224-320c0 8.822-7.178 16-16 16s-16-7.178-16-16v-8c0-8.822 7.178-16 16-16s16 7.178 16 16zm-32 80c0-8.822 7.178-16 16-16s16 7.178 16 16v96h-32zm0 128h32v112h-32zm64 112c0-17.396 0-224.017 0-234.264 9.947 11.283 16 26.076 16 42.264v80c0 8.836 7.163 16 16 16s16-7.164 16-16v-80c0-42.256-27.443-78.22-65.441-91.012 10.646-8.812 17.441-22.121 17.441-36.988v-8c0-26.467-21.532-48-48-48s-48 21.533-48 48v8c0 14.867 6.795 28.176 17.441 36.988-37.998 12.792-65.441 48.756-65.441 91.012v80c0 8.836 7.163 16 16 16s16-7.164 16-16v-80c0-16.188 6.053-30.981 16-42.264v234.264h-128v-272c0-97.047 78.953-176 176-176s176 78.953 176 176v272z"/></g></svg>