<svg id="Layer_1" enable-background="new 0 0 512 512" height="512" viewBox="0 0 512 512" width="512" xmlns="http://www.w3.org/2000/svg"><g><path d="m160 128h17.61c2.079 10.199 6.113 19.691 11.678 28.085l-12.481 12.481c-6.249 6.249-6.249 16.379 0 22.627 6.247 6.248 16.379 6.249 22.627 0l12.482-12.481c8.394 5.565 17.886 9.6 28.085 11.678v17.61c0 8.836 7.163 16 16 16s16-7.164 16-16v-17.61c10.199-2.079 19.691-6.113 28.085-11.678l12.482 12.481c6.247 6.248 16.379 6.249 22.627 0 6.249-6.248 6.249-16.379 0-22.627l-12.481-12.481c5.565-8.394 9.6-17.886 11.678-28.085h17.608c8.837 0 16-7.164 16-16s-7.163-16-16-16h-17.61c-2.079-10.199-6.113-19.691-11.678-28.085l12.481-12.481c6.249-6.249 6.249-16.379 0-22.627-6.248-6.249-16.379-6.249-22.627 0l-12.482 12.481c-8.394-5.565-17.886-9.6-28.085-11.678v-17.61c0-8.836-7.163-16-16-16s-16 7.164-16 16v17.61c-10.199 2.079-19.691 6.113-28.085 11.678l-12.482-12.481c-6.248-6.249-16.379-6.249-22.627 0-6.249 6.248-6.249 16.379 0 22.627l12.481 12.481c-5.565 8.394-9.6 17.886-11.678 28.085h-17.608c-8.837 0-16 7.164-16 16s7.163 16 16 16zm50.671-31.76c4.814-13.807 15.763-24.755 29.57-29.57 1.273 7.563 7.834 13.33 15.759 13.33s14.486-5.767 15.76-13.329c13.807 4.814 24.755 15.762 29.57 29.57-7.563 1.273-13.33 7.835-13.33 15.759s5.767 14.486 13.329 15.76c-4.814 13.807-15.763 24.755-29.57 29.57-1.273-7.563-7.834-13.33-15.759-13.33s-14.486 5.767-15.76 13.329c-13.807-4.814-24.755-15.762-29.57-29.57 7.563-1.273 13.33-7.835 13.33-15.759s-5.767-14.486-13.329-15.76z"/><path d="m432 248c-43.469 0-316.566 0-352 0-8.837 0-16 7.164-16 16v96c0 8.836 7.163 16 16 16h16v104c-8.837 0-16 7.164-16 16s7.163 16 16 16h32c8.837 0 16-7.164 16-16s-7.163-16-16-16v-40h256v40c-8.837 0-16 7.164-16 16s7.163 16 16 16h32c8.837 0 16-7.164 16-16s-7.163-16-16-16v-104h16c8.837 0 16-7.164 16-16v-96c0-8.836-7.163-16-16-16zm-253.333 96-26.667-64h37.333l26.667 64zm72 0-26.667-64h37.333l26.667 64zm72 0-26.667-64h37.333l26.667 64zm-226.667-64h21.333l26.667 64h-48zm32 128v-32c8.293 0 242.093.004 256 .004v31.996zm288-64h-21.333l-26.667-64h48z"/></g></svg>